<svg enable-background="new 0 0 512 512" viewBox="0 0 512 512" xmlns="http://www.w3.org/2000/svg"><path d="m143.668 345.72 94.632-49.751v98.03h35.401v-98.03l94.631 49.751-21.454-125.083 90.879-88.583-125.591-18.25-56.165-113.804-56.167 113.804-125.591 18.25 90.879 88.583z" fill="#ffda44"/><path d="m188.354 169.131 46.743-6.793 20.904-42.354 20.903 42.354 46.742 6.793-33.823 32.97 7.984 46.552-41.806-21.98-41.807 21.98 7.984-46.552z" fill="#ff9811"/><path d="m356.302 476.6v-100.301h-200.602v100.301h-35.401v35.4h271.403v-35.4z" fill="#ff9811"/><path d="m120.303 476.595h271.403v35.4h-271.403z" fill="#a2001d"/><path d="m220.604 441.195h70.801v35.4h-70.801z" fill="#ffda44"/></svg>