<svg height="19" viewBox="0 0 19 19" width="19" xmlns="http://www.w3.org/2000/svg"><path d="m33.5 64.712375c2.5365 0 2.8373333.0095 3.8395833.0554167 2.5745.1171666 3.7770417 1.3387083 3.8942084 3.8942083.0459166 1.0014583.054625 1.3022917.054625 3.8387917 0 2.5372916-.0095 2.8373333-.054625 3.8387916-.1179584 2.553125-1.3173334 3.7770417-3.8942084 3.8942084-1.00225.0459166-1.3015.0554166-3.8395833.0554166-2.5365 0-2.8373333-.0095-3.8387917-.0554166-2.5808333-.1179584-3.7770416-1.3450417-3.8942083-3.895-.0459167-1.0014584-.0554167-1.3015-.0554167-3.8387917 0-2.5365.0102917-2.8365417.0554167-3.8387917.1179583-2.5547083 1.3173333-3.7770416 3.8942083-3.8942083 1.00225-.045125 1.3022917-.054625 3.8387917-.054625zm0-1.712375c-2.5800417 0-2.9030417.0110833-3.916375.057-3.4500833.1583333-5.3675 2.0725833-5.5258333 5.5258333-.0467084 1.014125-.0577917 1.337125-.0577917 3.9171667s.0110833 2.9038333.057 3.9171667c.1583333 3.4500833 2.0725833 5.3675 5.5258333 5.5258333 1.014125.0459167 1.337125.057 3.9171667.057s2.9038333-.0110833 3.9171667-.057c3.4469166-.1583333 5.3690833-2.0725833 5.5250416-5.5258333.0467084-1.0133334.0577917-1.337125.0577917-3.9171667s-.0110833-2.9030417-.057-3.916375c-.1551667-3.4469167-2.0717917-5.3675-5.5250417-5.5258333-1.014125-.0467084-1.3379166-.0577917-3.9179583-.0577917zm0 4.62175c-2.6940417 0-4.87825 2.1842083-4.87825 4.87825s2.1842083 4.8790417 4.87825 4.8790417 4.87825-2.1842084 4.87825-4.8790417c0-2.6940417-2.1842083-4.87825-4.87825-4.87825zm0 8.0449167c-1.7487917 0-3.1666667-1.4170834-3.1666667-3.1666667 0-1.7487917 1.417875-3.1666667 3.1666667-3.1666667s3.1666667 1.417875 3.1666667 3.1666667c0 1.7495833-1.417875 3.1666667-3.1666667 3.1666667zm5.0714167-9.3772917c-.6301667 0-1.1407917.510625-1.1407917 1.14s.510625 1.14 1.1407917 1.14c.629375 0 1.1392083-.510625 1.1392083-1.14s-.5098333-1.14-1.1392083-1.14z" fill="#fff" transform="translate(-24 -63)"/></svg>