<svg height="35" viewBox="0 0 39 35" width="39" xmlns="http://www.w3.org/2000/svg"><path d="m704 238c-1.64469 0-3 1.35531-3 3v29c0 1.6447 1.35531 3 3 3h32.999995c1.64469 0 2.999999-1.3553 2.999999-3v-29c0-1.64469-1.355309-3-2.999999-3zm0 2h32.999995c.571285 0 1 .428715 1 1v20.578152l-6.296874-6.296899c-.380055-.3763-1.074155-.3612-1.4375.031l-6.296874 6.734599-9.765624-9.765604c-.211115-.20784-.518075-.314095-.8125-.28125-.20741.02195-.407225.11075-.5625.25l-9.828123 8.968754v-20.218752c0-.571285.428715-1 1-1zm19.499997 1.999999c-2.74958 0-4.999999 2.25042-4.999999 5 0 2.749574 2.250419 4.999999 4.999999 4.999999 2.749579 0 4.999999-2.250425 4.999999-4.999999 0-2.74958-2.25042-5-4.999999-5zm0 2c1.6687 0 2.999999 1.3313 2.999999 3 0 1.668694-1.331299 2.999999-2.999999 2.999999s-3-1.331305-3-2.999999c0-1.6687 1.3313-3 3-3zm-10.031249 10.499999 9.828124 9.828098c.380055.3763 1.074155.3612 1.4375-.031l6.296874-6.734599 6.968749 6.968749v5.593749c0 .5713-.428715 1-1 1h-32.999995c-.571285 0-1-.4287-1-1v-6.062499z" fill="#fff" transform="translate(-701 -238)"/></svg>