<svg height="45" viewBox="0 0 45 45" width="45" xmlns="http://www.w3.org/2000/svg"><path d="m708.424619 821.931947c-4.263448-.423291-8.101667-1.909997-11.465832-4.441202-5.098145-3.835855-8.264624-9.530145-8.881578-15.971755-.144489-1.508643-.081594-3.734008.150278-5.31677 1.115617-7.615361 6.12935-14.191002 13.196306-17.307296 1.777051-.783623 3.8739-1.389255 5.774262-1.667781 2.066336-.302857 4.537953-.302857 6.60429 0 7.613551 1.115882 14.187629 6.130807 17.303183 13.199443.783434 1.777473 1.388924 3.874821 1.667386 5.775634.302781 2.066828.302781 4.539032 0 6.60586-.857717 5.854888-4.059383 11.207938-8.827063 14.758468-3.348725 2.493825-7.187541 3.960183-11.43229 4.366922-.932726.089376-3.181856.088537-4.088942-.001523zm8.32171-19.937514v-6.394042h.878362.878362v-1.195832-1.195833h-8.027252-8.027252v1.195833 1.195832h.829564.829564v6.394042 6.394043h6.319326 6.319326zm-10.589141-1.049404v-5.393447h.878362.878362v5.393447 5.393448h-.878362-.878362zm3.46465 0v-5.393447h.878362.878362v5.393447 5.393448h-.878362-.878362zm3.415852 0v-5.393447h.829564.829564v5.393447 5.393448h-.829564-.829564zm1.707926-10.469634v-1.073808h-4.245416-4.245416v1.073808 1.073809h4.245416 4.245416z" fill="#becae3" transform="translate(-688 -777)"/></svg>