<svg height="26" viewBox="0 0 26 26" width="26" xmlns="http://www.w3.org/2000/svg"><path d="m146 26c-7.179702 0-13-5.8202983-13-13 0-7.17970175 5.820298-13 13-13s13 5.82029825 13 13v13zm0-2.7368421h10.263158v-10.2631579c0-5.66818559-4.594972-10.26315789-10.263158-10.26315789s-10.263158 4.5949723-10.263158 10.26315789c0 5.6681856 4.594972 10.2631579 10.263158 10.2631579zm-8.186951-10.6944527 2.689691-.5058314c.720965 3.8336344 2.60071 5.6229548 5.881391 5.7237566 2.071831.0636588 3.556867-.9390221 4.640277-2.7518048.388597-.6502076.692497-1.357101.917588-2.0647494.133545-.4198466.208983-.7365363.237145-.8944853l2.69435.4803971c-.048084.2696827-.150909.7013482-.323413 1.2436726-.284992.8959701-.670502 1.7926951-1.176415 2.639198-1.5523 2.5973369-3.897669 4.1809056-7.073584 4.0833229-4.629185-.1422358-7.538913-2.9119931-8.48703-7.9534763z" fill="#fb7c7c" transform="translate(-133)"/></svg>