<svg height="17" viewBox="0 0 13 17" width="13" xmlns="http://www.w3.org/2000/svg"><path d="m40.4952432 205.620162v-.067216c0-.418236.0634814-.799125.190446-1.142676s.2950034-.660958.5041216-.952229c.2091182-.291272.4369042-.563869.6833649-.817798.2464606-.253929.4966518-.492918.750581-.716973.3584883-.343551.675895-.664692.9522298-.963432.2763347-.29874.4145-.612413.4145-.941027 0-.313677-.0672156-.537729-.2016487-.672162s-.3435481-.201649-.6273513-.201649c-.2987403 0-.5451973.126963-.7393784.380892-.1941812.253929-.3286123.61988-.4032973 1.097865h-5.0188108c.014937-.941032.1904443-1.76629.526527-2.475798.3360828-.709508.795389-1.295777 1.3779325-1.758824.5825434-.463047 1.2733698-.810328 2.0724999-1.041851.7991302-.231524 1.6766664-.347284 2.6326352-.347284.9111577 0 1.7401494.089621 2.487.268865.7468505.179244 1.3779298.45184 1.8932567.817797s.914886.832732 1.1986892 1.400338.4257027 1.232293.4257027 1.994081c0 .687103-.1232285 1.284574-.3696892 1.792432-.2464607.507859-.5713358.963431-.9746351 1.36673-.2987403.29874-.6012102.575071-.9074189.829-.3062088.253929-.5937419.500386-.8626082.739379-.2688662.238992-.5041206.474246-.7057702.70577-.2016497.231524-.339815.466778-.4145.70577zm5.1084324 4.369054c-.1493701.313677-.3547509.590008-.6161486.829s-.5638677.425702-.9074189.560135c-.3435513.134433-.716971.201649-1.1202703.201649s-.7841874-.067216-1.1426757-.201649c-.3584882-.134433-.6684266-.321143-.9298243-.560135s-.4667785-.519057-.6161486-.840203c-.1493701-.321145-.2240541-.660957-.2240541-1.019445 0-.358489.074684-.698301.2240541-1.019446.1493701-.321146.3547509-.601211.6161486-.840203s.5713361-.429436.9298243-.571338c.3584883-.141902.7393764-.212851 1.1426757-.212851s.776719.070949 1.1202703.212851c.3435512.141902.6460212.332346.9074189.571338s.4667785.519057.6161486.840203c.1493702.321145.2240541.660957.2240541 1.019446 0 .358488-.0746839.702034-.2240541 1.030648z" fill="#becae3" fill-rule="evenodd" transform="translate(-37 -195)"/></svg>