<svg height="40" viewBox="0 0 138 40" width="138" xmlns="http://www.w3.org/2000/svg"><g fill="#fff" transform=""><g transform="translate(48 8)"><path d="m17.867402 18.8912385v-7.0929929c0-1.96637425-.6642157-3.65183791-1.9262255-5.05639096s-2.8561275-2.10682958-4.6495098-2.10682958c-1.85980395 0-3.38750003.70227653-4.71593141 2.10682958-1.2620098 1.40455305-1.92622549 3.09001671-1.92622549 5.05639096 0 1.9663743.66421569 3.5816103 1.92622549 4.9861633 1.26200981 1.4045531 2.85612746 2.1068296 4.71593141 2.1068296zm4.7159313-7.0929929v11.7982456h-11.2916666c-3.05539219 0-5.71225494-1.1236424-7.97058827-3.4411549-2.19191176-2.3175126-3.32107843-5.056391-3.32107843-8.3570907 0-3.230472 1.12916667-6.0395781 3.32107843-8.35709063 2.19191177-2.31751253 4.84877451-3.44115497 7.97058827-3.44115497 3.0553921 0 5.7786764 1.12364244 7.9705882 3.44115497 2.2583333 2.31751253 3.3210784 5.12661863 3.3210784 8.35709063z"/><path d="m36.625 19.2142857c1.8460784 0 3.3625-.7142857 4.6151961-2.1428571 1.2526961-1.4285715 1.9120098-3.0714286 1.9120098-5.0714286s-.6593137-3.71428571-1.9120098-5.14285714-2.835049-2.14285715-4.6151961-2.14285715c-1.8460784 0-3.3625.71428572-4.6151961 2.14285715s-1.9120098 3.14285714-1.9120098 5.14285714v7.2142857zm-7.9117647 9.2857143c-.9230392 1-1.9779412 1.5-3.2965686 1.5v-18c0-3.28571429 1.1208333-6.14285714 3.2965686-8.5s4.8129902-3.5 7.9117647-3.5c3.0328431 0 5.670098 1.14285714 7.9117647 3.5s3.2965686 5.21428571 3.2965686 8.5c0 3.2857143-1.1208333 6.1428571-3.2965686 8.5s-4.8789216 3.5-7.9117647 3.5h-6.5931373v.9285714c.0659314 1.4285715-.3955882 2.5714286-1.3186274 3.5714286z"/><path d="m63.7916667 19.2142857c1.8598039 0 3.3875-.7142857 4.6495098-2.1428571 1.2620098-1.4285715 1.9262255-3.0714286 1.9262255-5.0714286s-.6642157-3.71428571-1.9262255-5.14285714-2.8561275-2.14285715-4.6495098-2.14285715c-1.859804 0-3.3875.71428572-4.6495098 2.14285715s-1.9262255 3.14285714-1.9262255 5.14285714v7.2142857zm-7.9705883 9.2857143c-.9299019 1-1.992647 1.5-3.3210784 1.5v-18c0-3.28571429 1.1291667-6.14285714 3.3210784-8.5 2.1919118-2.35714286 4.8487745-3.5 7.9705883-3.5 3.0553921 0 5.7122549 1.14285714 7.9705882 3.5s3.3210784 5.21428571 3.3210784 8.5c0 3.2857143-1.1291666 6.1428571-3.3210784 8.5s-4.9151961 3.5-7.9705882 3.5h-6.6421569v.9285714c0 1.4285715-.464951 2.5714286-1.3284314 3.5714286z"/><path d="m79.4143192 22.1217105c-.8873239-.9831871-1.3309859-2.1068295-1.3309859-3.5113826v-18.6103279c1.2042254 0 2.2816902.49159357 3.1690141 1.4747807.887324.98318714 1.3309859 2.10682958 1.3309859 3.51138262v18.61032788c-1.2042253 0-2.2816901-.4915935-3.1690141-1.4747807z"/><path d="m90 23.5964912c-1.2042254 0-2.2816901-.4915935-3.1690141-1.4747807-.8873239-.9831871-1.3309859-2.1068295-1.3309859-3.5113826v-18.6103279c1.2042254 0 2.2816901.49159357 3.1690141 1.4747807.8873239.98318714 1.3309859 2.10682958 1.3309859 3.51138262z"/></g><path d="m19 40c-10.49341025 0-19-8.954305-19-20s8.50658975-20 19-20c10.4934102 0 19 8.954305 19 20v20zm0-4.2105263h15v-15.7894737c0-8.7202855-6.7157288-15.78947368-15-15.78947368s-15 7.06918818-15 15.78947368 6.7157288 15.7894737 15 15.7894737zm-11.96554364-16.4530042 3.93108724-.7782022c1.0537178 5.8978992 3.8010372 8.6506997 8.5958792 8.8057794 3.0280595.0979366 5.1984972-1.4446494 6.7819433-4.2335458.5679493-1.0003194 1.0121111-2.0878477 1.3410893-3.1765375.1951822-.6459179.3054365-1.1331328.3465963-1.3761312l3.9378966.7390724c-.0702764.4148964-.2205593 1.0789973-.47268 1.9133425-.4165269 1.3784155-.9799654 2.7579924-1.7193766 4.0603046-2.2687457 3.9959029-5.6965934 6.4321625-10.3383145 6.2820352-6.7657315-.2188242-11.01841214-4.4799893-12.40412084-12.2361174z"/></g></svg>