<svg height="34" viewBox="0 0 34 34" width="34" xmlns="http://www.w3.org/2000/svg"><path d="m37 49c-9.3888407 0-17-7.6111593-17-17s7.6111593-17 17-17 17 7.6111593 17 17v17zm0-3.5789474h13.4210526v-13.4210526c0-7.4122427-6.0088099-13.4210526-13.4210526-13.4210526s-13.4210526 6.0088099-13.4210526 13.4210526 6.0088099 13.4210526 13.4210526 13.4210526zm-10.7060127-13.9850535 3.5172886-.6614719c.9428001 5.0132143 3.400928 7.3530948 7.6910497 7.4849125 2.7093164.0832461 4.651287-1.227952 6.0680546-3.5985139.5081652-.8502715.9055731-1.7746706 1.199922-2.7000569.1746367-.5490302.2732853-.9631629.3101125-1.1697115l3.5233811.6282115c-.0628789.352662-.1973424.9171477-.4229242 1.6263412-.3726819 1.1716531-.8768111 2.3442935-1.5383896 3.4512589-2.0299304 3.3965174-5.0969519 5.4673381-9.2500708 5.3397299-6.0535493-.1860006-9.8585793-3.8079909-11.0984239-10.4006998z" fill="#fff" transform="translate(-20 -15)"/></svg>