<svg height="24" viewBox="0 0 28 24" width="28" xmlns="http://www.w3.org/2000/svg"><path d="m27.3 25.26h-6.8133333v-7.56c0-.3733333-.3266667-.7-.7-.7h-11.57333337c-.37333333 0-.7.3266667-.7.7v7.56h-6.81333333c-.37333333 0-.7.3266667-.7.7v13.58c0 .3733333.32666667.7.7.7h7.51333333 2.47333337 6.6266666 2.4733334 7.5133333c.3733333 0 .7-.3266667.7-.7v-13.58c0-.3733333-.3266667-.7-.7-.7zm-25.9 11.48h2.66c.37333333 0 .7-.3266667.7-.7s-.32666667-.7-.7-.7h-2.66v-1.8666667h2.66c.37333333 0 .7-.3266666.7-.7 0-.3733333-.32666667-.7-.7-.7h-2.66v-1.8666666h2.66c.37333333 0 .7-.3266667.7-.7 0-.3733334-.32666667-.7-.7-.7h-2.66v-2.1h6.11333333v12.18h-6.11333333zm7.51333333-10.78v-7.56h10.17333337v7.56 12.88h-1.0733334v-8.6333333c0-.3733334-.3266666-.7-.7-.7h-6.6266666c-.3733334 0-.70000003.3266666-.70000003.7v8.6333333h-1.07333334zm2.47333337 12.88v-7.9333333h5.2266666v7.9333333zm9.1 0v-12.18h6.1133333v2.1h-2.8933333c-.3733334 0-.7.3266667-.7.7s.3266666.7.7.7h2.8933333v1.8666667h-2.8933333c-.3733334 0-.7.3266666-.7.7 0 .3733333.3266666.7.7.7h2.8933333v1.8666666h-2.8933333c-.3733334 0-.7.3266667-.7.7 0 .3733334.3266666.7.7.7h2.8933333v2.1h-6.1133333zm-9.4733334-14.6066667h5.9733334c.3733333 0 .7-.3266666.7-.7v-2.7533333c0-.3733333-.3266667-.7-.7-.7h-5.9733334c-.3733333 0-.7.3266667-.7.7v2.7533333c0 .42.3266667.7.7.7zm.7-2.7533333h4.5733334v1.3533333h-4.5733334z" fill="#ede256" transform="translate(0 -17)"/></svg>