<svg height="23" viewBox="0 0 23 23" width="23" xmlns="http://www.w3.org/2000/svg"><path d="m42 35.8534594-6.3762376-6.3652772c3.1287128-3.716373 2.970297-9.2513966-.5148515-12.7305544-3.6831683-3.6768371-9.6633663-3.6768371-13.3465347 0-3.6831683 3.6768372-3.6831683 9.6467555 0 13.3235927 1.8217822 1.8186506 4.2772278 2.7675118 6.6930693 2.7675118 2.1782179 0 4.3168317-.7511818 6.0990099-2.2140095l6.3762377 6.3652772zm-19.1287129-6.8792437c-3.0495049-3.044263-3.0495049-8.0257842 0-11.0700472 1.5445545-1.5418995 3.5247525-2.2930813 5.5445545-2.2930813s4.0396039.7511818 5.5445544 2.2930813c3.049505 3.044263 3.049505 8.0257842 0 11.0700472-3.0495049 3.044263-8.0396039 3.044263-11.0891089 0z" fill="#7f8daa" transform="translate(-19 -14)"/></svg>