<svg height="21" viewBox="0 0 23 21" width="23" xmlns="http://www.w3.org/2000/svg"><path d="m54.6153846 151.4278v-3.8556h-3.7325077c-.1741384-.5958-.4261384-1.1604-.7482461-1.6851l2.6372769-2.4489-2.9361231-2.7264-2.6385692 2.4489c-.5650616-.2991-1.1730923-.5331-1.8134308-.696v-3.4647h-4.1521846v3.4647c-.6403385.1629-1.2496615.3969-1.8150462.696l-2.6372769-2.4489-2.9361231 2.7264 2.637277 2.4489c-.3224308.5247-.5741077 1.0893-.7495385 1.6851h-3.7308923v3.8556h3.7312154c.1754308.5958.4274308 1.1604.7495384 1.6851l-2.6372769 2.4489 2.9361231 2.7252 2.6372769-2.4477c.5653846.2991 1.1730923.5331 1.8150462.696v3.4647h4.1521846v-3.4647c.6403385-.1629 1.2496615-.3969 1.8150461-.696l2.637277 2.4477 2.936123-2.7252-2.6372769-2.4489c.3224308-.5247.5741077-1.0893.7482462-1.6851zm-10.7692308 2.5722c-2.3793806 0-4.3076923-1.790575-4.3076923-4s1.9283117-4 4.3076923-4c2.3780251 0 4.3076924 1.790575 4.3076924 4s-1.9296673 4-4.3076924 4z" fill="#7f8daa" transform="translate(-32 -139)"/></svg>