<svg height="18" viewBox="0 0 21 18" width="21" xmlns="http://www.w3.org/2000/svg"><path d="m1.60973764.34471806c-.86044686 0-1.56949976.65451037-1.56949976 1.44876901v14.00476953c0 .7942634.7090529 1.448769 1.56949976 1.448769h17.26449736c.8604469 0 1.5694998-.6545056 1.5694998-1.448769v-14.00476953c0-.79425864-.7090529-1.44876901-1.5694998-1.44876901zm0 .965846h17.26449736c.2988772 0 .5231666.20703634.5231666.48292301v9.93766443l-3.2943146-3.04091788c-.1988321-.18172393-.561962-.17443179-.752052.01497061l-3.2943146 3.25229327-5.10904868-4.7160353c-.11044832-.10037072-.27103953-.1516837-.42507285-.1358221-.10850999.01060016-.21304652.05348372-.29428121.12073075l-5.14174661 4.33121815v-9.76410193c0-.27588667.22428936-.48292301.52316659-.48292301zm10.20174846.96584601c-1.4384884 0-2.61583296 1.08677959-2.61583296 2.41461502 0 1.32783301 1.17734456 2.41461501 2.61583296 2.41461501s2.6158329-1.086782 2.6158329-2.41461501c0-1.32783543-1.1773445-2.41461502-2.6158329-2.41461502zm0 .96584601c.8730081 0 1.5694997.64291539 1.5694997 1.44876901 0 .8058512-.6964916 1.44876901-1.5694997 1.44876901s-1.5694998-.64291781-1.5694998-1.44876901c0-.80585362.6964917-1.44876901 1.5694998-1.44876901zm-5.24801485 5.07069153 5.14174665 4.74621559c.198832.1817239.561962.1744318.7520519-.0149706l3.2943146-3.25229329 3.6458172 3.36536969v2.7013505c0 .2758939-.2242894.482923-.5231666.482923h-17.26449736c-.29887723 0-.52316659-.2070291-.52316659-.482923v-2.9277207z" fill="#fff" transform=""/></svg>