<svg height="21" viewBox="0 0 18 21" width="18" xmlns="http://www.w3.org/2000/svg"><path d="m1150.95523 291.622857h4.29738c1.07932.001181 1.95396.819808 1.95522 1.83v4.761428c.00265.344037-.1779.666723-.48154.86063s-.69051.233576-1.03181.105799l-.44187 7.214999c-.02183.339894-.32304.604899-.68685.604286h-2.93742c-.36381.000613-.66502-.264392-.68685-.604286l-.42813-7.219285c-.34056.126359-.72586.086665-1.0289-.105995-.30303-.192659-.48446-.513276-.48446-.856148v-4.761428c.00126-1.010192.87591-1.828819 1.95523-1.83zm2.14525-1.097143c1.33406-.00473 2.41191-1.01993 2.40854-2.26855-.00336-1.248619-1.08667-2.258717-2.42074-2.257146-1.33406.001571-2.41465 1.014215-2.41466 2.262839 0 .601635.25597 1.178504.71136 1.60312.45539.424615 1.0727.662016 1.7155.659737zm5.69626 2.927143v4.761428c-.00151.34363.17929.665559.48257.859233.30328.193675.68948.233838 1.03079.107196l.43729 7.214999c.02183.339894.32304.604899.68685.604286h2.93971c.36381.000613.66502-.264392.68685-.604286l.43042-7.219285c.34004.125649.72449.085531 1.02661-.107129.30211-.192659.48268-.512852.48217-.855014v-4.761428c-.00126-1.010192-.87591-1.828819-1.95523-1.83h-4.29738c-1.07753.003538-1.94939.821477-1.95065 1.83zm4.10278-2.927143c1.33526 0 2.4177-1.013116 2.4177-2.262857s-1.08244-2.262857-2.4177-2.262857c-1.33527 0-2.41771 1.013116-2.41771 2.262857s1.08244 2.262857 2.41771 2.262857z" fill="#9498a1" transform="translate(-1149 -286)"/></svg>