<svg height="20" viewBox="0 0 22 20" width="22" xmlns="http://www.w3.org/2000/svg"><path d="m43.5161972 107c-5.8079353 0-10.5161972-4.477153-10.5161972-10 0-5.5228475 4.7082619-10 10.5161972-10s10.5161972 4.4771525 10.5161972 10v10zm0-2.105263h8.3022609v-7.894737c0-4.3601428-3.7170488-7.8947368-8.3022609-7.8947368s-8.3022609 3.534594-8.3022609 7.8947368c0 4.360143 3.7170488 7.894737 8.3022609 7.894737zm-6.6227377-8.2265022 2.1757941-.3891011c.5832161 2.9489496 2.1038135 4.3253503 4.7576821 4.4028893 1.6759827.048969 2.8772854-.7223243 3.7536976-2.1167726.3143509-.5001596.5601874-1.0439238.7422715-1.5882687.1080303-.322959.1690543-.5665664.1918356-.6880656l2.179563.3695362c-.0388969.2074482-.122076.5394986-.2616209.9566713-.2305409.6892077-.5423952 1.3789962-.9516475 2.0301523-1.2557146 1.9979511-3.1529737 3.2160811-5.7220923 3.1410171-3.7447246-.109412-6.0985155-2.239994-6.8654832-6.1180582z" fill="#72d371" transform="translate(-33 -87)"/></svg>