<svg height="265.306122" viewBox="0 0 400 265.30612245" width="400" xmlns="http://www.w3.org/2000/svg"><g fill-rule="evenodd"><path d="m21.841 38.62c.002.73.054.997.115.593.061-.403.059-1-.004-1.327-.063-.326-.113.004-.111.734m0 188.454c.002.73.054.997.115.593.061-.403.059-1-.004-1.327-.063-.326-.113.004-.111.734" fill="#00f"/><path d="m32.073.258c-.049.142-.985.332-2.08.422-2.648.218-3.688.562-4.041 1.337-.16.351-.505.637-.766.637-1.654 0-3.231.609-3.513 1.357-.159.422-.481.767-.714.767-1.081 0-3.106.823-3.346 1.361-.14.312-.666.701-1.17.864-.693.224-.977.506-1.169 1.159-.176.597-.416.863-.779.863-.961 0-2.816 1.07-2.816 1.625 0 .308-.374.736-.929 1.064-.511.301-.929.681-.929.843s-.508.784-1.128 1.381c-1.815 1.748-3.548 3.922-3.739 4.691-.098.391-.419.789-.715.882-.753.239-1.247 1.113-1.461 2.586-.143.978-.293 1.261-.67 1.261-.778 0-1.312 1.041-1.312 2.561 0 .875-.146 1.528-.398 1.78-.606.606-.606 209.689 0 210.295.253.253.398.907.398 1.793 0 1.379.693 2.549 1.509 2.549.154 0 .424.73.6 1.623.278 1.417.416 1.659 1.087 1.912.538.204.819.532.94 1.098.095.444.547 1.181 1.005 1.638.457.456 1.07 1.155 1.362 1.554s1.377 1.578 2.41 2.621c1.034 1.043 1.951 2.092 2.038 2.331.179.493 1.393 1.161 2.583 1.423.521.114.799.338.799.644 0 .621.83 1.347 1.541 1.347.359 0 .715.283.966.767.42.812 1.562 1.356 2.848 1.356.565 0 .827.169 1.01.648.32.842.871 1.116 2.705 1.344 1.27.158 1.528.282 1.657.797.203.809 1.357 1.201 4.071 1.385 1.204.081 2.19.251 2.19.376 0 .127 74.561.228 168.016.228 111.833 0 168.016-.089 168.016-.265 0-.146.686-.277 1.526-.291 2.502-.042 4.119-.526 4.515-1.351.291-.607.562-.737 1.861-.894 1.819-.219 2.125-.364 2.542-1.2.175-.351.555-.674.843-.717 1.798-.265 2.805-.702 3.116-1.352.183-.381.57-.736.861-.789.741-.136 1.458-.83 1.458-1.41 0-.288.192-.493.464-.496.973-.012 2.706-1.042 3.302-1.962.337-.52.758-.947.936-.949.177-.001.459-.272.627-.6.168-.329.74-1.027 1.271-1.551 1.976-1.955 3.751-4.198 3.751-4.741 0-.308.209-.634.465-.724.949-.337 1.365-.961 1.535-2.301.152-1.198.276-1.416 1.011-1.765.784-.372.854-.521 1.082-2.322.135-1.059.344-1.925.465-1.925s.22-47.239.22-104.976c0-58.595-.101-104.977-.229-104.977-.126 0-.311-.804-.412-1.786-.188-1.842-.671-2.726-1.487-2.726-.353 0-.504-.365-.688-1.659-.216-1.516-.311-1.694-1.093-2.057-.637-.296-.859-.574-.863-1.081-.004-.467-.341-.964-1.067-1.574-.584-.49-1.062-1.022-1.062-1.182 0-.25-.813-1.192-1.841-2.135-.942-.863-2.937-3.106-2.937-3.301 0-.406-1.862-1.344-2.669-1.344-.643 0-.781-.111-.781-.623 0-.742-.761-1.501-1.505-1.501-.304 0-.657-.271-.821-.632-.281-.615-2.206-1.491-3.278-1.491-.256 0-.542-.242-.636-.538-.245-.772-1.123-1.243-2.703-1.451-1.038-.136-1.48-.336-1.791-.81-.474-.724-1.651-1.096-4.197-1.327-.985-.09-1.791-.273-1.791-.408 0-.342-335.959-.328-336.076.014m320.401 18.153c.323.848 1.665 1.148 6.186 1.38 2.007.103 3.649.291 3.649.417 0 .654 1.235 1.395 2.504 1.504 1.154.099 1.421.233 1.879.943.382.593.805.871 1.492.983.649.106 1.229.463 1.792 1.104.458.522 1.107 1.017 1.442 1.101.349.088.773.522.993 1.016.238.539.632.921 1.045 1.015.38.087.699.373.748.671.24 1.442.929 2.739 1.537 2.891.475.12.637.343.64.885.006 1.189.687 2.83 1.29 3.11l.564.262v97.066c0 94.67-.012 97.07-.498 97.224-.557.177-1.36 2.032-1.36 3.145 0 .529-.179.795-.656.977-.693.263-1.468 1.743-1.468 2.804 0 .399-.204.678-.584.799-.737.234-1.154.647-1.384 1.372-.115.362-.442.599-.898.651-.511.059-.824.326-1.089.929-.305.692-.571.879-1.46 1.027-1.431.236-1.993.553-2.268 1.277-.181.475-.567.659-1.912.909-1.52.282-2.152.659-2.412 1.439-.045.136-1.811.351-3.925.478-4.433.266-5.335.468-5.696 1.272l-.262.582h-152.275c-151.24 0-152.276-.003-152.441-.522-.241-.758-1.625-1.075-5.771-1.32-3.584-.212-3.658-.229-4.384-1.006-.58-.621-1.055-.831-2.207-.974-1.297-.163-1.502-.272-1.755-.941-.24-.639-.52-.81-1.777-1.092-1.245-.278-1.578-.48-2.015-1.22-.368-.625-.717-.888-1.178-.888-.517 0-.672-.153-.739-.729-.06-.523-.32-.835-.915-1.096-.686-.303-.914-.64-1.304-1.931-.361-1.189-.616-1.6-1.068-1.713-.433-.109-.642-.414-.769-1.122-.375-2.096-.687-2.906-1.165-3.031-.835-.218-.835-.206-.833-97.183.003-94.347.024-97.309.689-97.309.477 0 .784-.647 1.148-2.417.239-1.159.45-1.554.953-1.784.478-.217.77-.712 1.117-1.895.29-.985.616-1.6.848-1.601.546 0 1.348-.801 1.348-1.347 0-.308.281-.531.821-.649.596-.131.921-.421 1.188-1.059.309-.74.544-.907 1.501-1.066 1.502-.248 2.039-.556 2.335-1.336.194-.51.437-.648 1.143-.648 1.341 0 2.577-.521 2.833-1.194.215-.566.421-.608 3.873-.793 4.236-.227 5.704-.566 6.077-1.405l.262-.589h152.167 152.166zm-283.861 46.066c-.584.274-1.394.862-1.8 1.306-.405.445-.957.879-1.226.964-.285.09-.724.77-1.054 1.631l-.565 1.477v67.127 67.127l.562 1.286c.379.87.844 1.438 1.436 1.757.481.259.931.684.999.945.408 1.558-4.1 1.458 65.749 1.458s65.341.1 65.749-1.458c.068-.261.518-.686.999-.945.592-.319 1.057-.887 1.436-1.757l.562-1.286v-67.127-67.127l-.565-1.477c-.331-.864-.768-1.541-1.055-1.632-.27-.085-.874-.562-1.343-1.06-1.759-1.864 3.842-1.718-65.855-1.712-60.996.006-63 .021-64.029.503m109.755 72.351v52.157h-45.654-45.654v-52.157-52.156h45.654 45.654zm54.943-44.208c-1.814.262-2.895.789-3.325 1.621-.214.414-.714.908-1.112 1.099-2.334 1.119-2.37 12.488-.045 13.675.348.178.931.67 1.296 1.093 1.512 1.753-2.154 1.637 51.658 1.637 41.071 0 48.859-.058 49.564-.37.46-.203 1.047-.439 1.305-.524.257-.084.576-.437.707-.783.132-.346.609-.782 1.061-.969.525-.218.882-.592.988-1.037.092-.383.299-.864.461-1.069.19-.24.296-1.945.296-4.778 0-5.022-.344-6.354-1.793-6.954-.426-.177-.878-.596-1.006-.932s-.745-.885-1.371-1.219l-1.139-.608-48.175-.028c-26.497-.015-48.713.051-49.37.146m-1.572 65.816c-.646.262-1.435.803-1.754 1.202-.318.399-.851.865-1.183 1.035-2.232 1.141-2.246 12.475-.018 13.615.323.165.906.659 1.296 1.098 1.578 1.774-2.142 1.654 51.703 1.654 41.071 0 48.859-.058 49.564-.369.46-.204 1.047-.439 1.305-.524.257-.085.576-.438.707-.784.132-.345.587-.773 1.013-.949 2.628-1.089 2.628-12.769 0-13.858-.426-.176-.881-.603-1.013-.949-.131-.346-.45-.699-.707-.784-.258-.084-.845-.32-1.305-.524-1.459-.644-98.008-.512-99.608.137" fill="#75bfe4"/></g></svg>