<?xml version="1.0" encoding="UTF-8"?>
<svg width="11px" height="13px" viewBox="0 0 11 13" version="1.1" xmlns="http://www.w3.org/2000/svg" xmlns:xlink="http://www.w3.org/1999/xlink">
    <!-- Generator: Sketch 46.2 (44496) - http://www.bohemiancoding.com/sketch -->
    <title>Shape</title>
    <desc>Created with Sketch.</desc>
    <defs></defs>
    <g id="Profile" stroke="none" stroke-width="1" fill="none" fill-rule="evenodd">
        <g id="User-View" transform="translate(-616.000000, -398.000000)" fill-rule="nonzero" fill="#529AEF">
            <g id="Group" transform="translate(616.000000, 394.000000)">
                <path d="M5.08978541,4 C2.29040344,4 0,6.20557368 0,8.9201259 C0,9.99463615 0.367595613,11.0125932 1.01795708,11.8608908 L4.86357273,16.894123 C4.94840248,17.0072294 5.14633858,17.035506 5.25944493,16.9506762 C5.28772151,16.9223996 5.28772151,16.9223996 5.3159981,16.894123 L9.16161374,11.8608908 C9.81197521,11.0125932 10.1795708,9.99463615 10.1795708,8.9201259 C10.1795708,6.20557368 7.88916739,4 5.08978541,4 Z M4.69391321,10.8429337 C3.61940296,10.616721 2.91248832,9.59876395 3.138701,8.5242537 C3.36491369,7.44974345 4.38287077,6.74282881 5.45738102,6.96904149 C6.24912542,7.138701 6.87121031,7.7325093 7.01259323,8.5242537 C7.21052933,9.59876395 6.50361469,10.6449976 5.45738102,10.8429337 C5.20289175,10.8994869 4.94840248,10.8994869 4.69391321,10.8429337 Z" id="Shape"></path>
            </g>
        </g>
    </g>
</svg>