<svg width="20px" height="19px" viewBox="0 0 20 19" version="1.1" xmlns="http://www.w3.org/2000/svg" xmlns:xlink="http://www.w3.org/1999/xlink">
    <!-- Generator: Sketch 47 (45396) - http://www.bohemiancoding.com/sketch -->
    <g id="Footer" stroke="none" stroke-width="1" fill="none" fill-rule="evenodd">
        <g id="Footer-View" transform="translate(-1145.000000, -864.000000)" fill-rule="nonzero" fill="#7F8DAA">
            <g id="Group-7" transform="translate(1145.000000, 864.000000)">
                <path d="M4,2 C4,3.1048 3.10483871,4 2,4 C0.89516129,4 0,3.1048 0,2 C0,0.896 0.89516129,0 2,0 C3.10483871,0 4,0.896 4,2 Z M4,6 L0,6 L0,19 L4,19 L4,6 Z M11.040035,5.41856893 L7,5.41856893 L7,19 L11.0408482,19 L11.0408482,11.8705975 C11.0408482,7.90651734 15.9437007,7.58226067 15.9437007,11.8705975 L15.9437007,19 L20,19 L20,10.4004076 C20,3.71155281 12.7445265,3.95516973 11.040035,7.24781793 L11.040035,5.41856893 Z" id="Shape"></path>
            </g>
        </g>
    </g>
</svg>