<svg width="19px" height="16px" viewBox="0 0 19 16" version="1.1" xmlns="http://www.w3.org/2000/svg" xmlns:xlink="http://www.w3.org/1999/xlink">
    <!-- Generator: Sketch 47 (45396) - http://www.bohemiancoding.com/sketch -->
    <g id="Footer" stroke="none" stroke-width="1" fill="none" fill-rule="evenodd">
        <g id="Footer-View" transform="translate(-1226.000000, -867.000000)" fill-rule="nonzero" fill="#7F8DAA">
            <g id="Group-7" transform="translate(1145.000000, 864.000000)">
                <path d="M86.9687805,19 C94.1378049,19 98.0594512,12.8409139 98.0594512,7.50888105 C98.0594512,7.33602811 98.0594512,7.16197481 98.0513415,6.98912188 C98.8159155,6.41601153 99.4757861,5.70630057 100,4.89328006 C99.2868022,5.21923187 98.5309712,5.43402402 97.7570732,5.53067525 C98.5724958,5.02515046 99.1830275,4.23005835 99.4751829,3.29319006 C98.7093694,3.76569588 97.8706622,4.09786131 96.9959146,4.27509075 C95.9015744,3.06735102 94.2065794,2.67408794 92.7196294,3.28293148 C91.2326795,3.89177501 90.2550712,5.37935694 90.2532317,7.03593621 C90.2550738,7.34593947 90.2880771,7.65490072 90.3517073,7.95781852 C87.2164292,7.79439634 84.295556,6.25941194 82.3160976,3.73492534 C81.2860193,5.58301602 81.8148321,7.94205794 83.5256098,9.13057766 C82.9078067,9.10821346 82.3037567,8.93550563 81.7623171,8.62642327 L81.7623171,8.68164018 C81.764717,10.6041834 83.0720391,12.2597142 84.8903659,12.6428532 C84.3176375,12.8038839 83.7170994,12.8280997 83.1340244,12.7136749 C83.6438226,14.3592255 85.1075587,15.4864119 86.7753049,15.5177336 C85.3932177,16.64391 83.685116,17.2545566 81.9268293,17.2510644 C81.6170822,17.2525025 81.3075465,17.2340615 81,17.1958475 C82.7828566,18.3732191 84.8534203,18.9979498 86.967622,18.9963989" id="Shape"></path>
            </g>
        </g>
    </g>
</svg>