<svg width="23" height="23" viewBox="0 0 23 23" xmlns="http://www.w3.org/2000/svg"><title>Shape</title><path d="M23 21.853l-6.376-6.365c3.128-3.716 2.97-9.251-.515-12.73-3.683-3.677-9.663-3.677-13.347 0-3.683 3.676-3.683 9.646 0 13.323a9.522 9.522 0 0 0 6.693 2.768c2.179 0 4.317-.751 6.1-2.214L21.93 23 23 21.853zM3.871 14.974c-3.05-3.044-3.05-8.026 0-11.07a7.769 7.769 0 0 1 5.545-2.293c2.02 0 4.04.751 5.544 2.293 3.05 3.044 3.05 8.026 0 11.07-3.05 3.044-8.04 3.044-11.089 0z" fill="#7F8DAA"/></svg>