<?xml version="1.0" encoding="UTF-8"?>
<svg width="34px" height="34px" viewBox="0 0 34 34" version="1.1" xmlns="http://www.w3.org/2000/svg" xmlns:xlink="http://www.w3.org/1999/xlink">
    <!-- Generator: Sketch 46.2 (44496) - http://www.bohemiancoding.com/sketch -->
    <title>Combined Shape</title>
    <desc>Created with Sketch.</desc>
    <defs></defs>
    <g id="Symbols" stroke="none" stroke-width="1" fill="none" fill-rule="evenodd">
        <g id="header--app" transform="translate(-20.000000, -15.000000)" fill-rule="nonzero" fill="#FFFFFF">
            <path d="M37,49 C27.6111593,49 20,41.3888407 20,32 C20,22.6111593 27.6111593,15 37,15 C46.3888407,15 54,22.6111593 54,32 L54,49 L37,49 Z M37,45.4210526 L50.4210526,45.4210526 L50.4210526,32 C50.4210526,24.5877573 44.4122427,18.5789474 37,18.5789474 C29.5877573,18.5789474 23.5789474,24.5877573 23.5789474,32 C23.5789474,39.4122427 29.5877573,45.4210526 37,45.4210526 Z M26.2939873,31.4359991 L29.8112759,30.7745272 C30.754076,35.7877415 33.2122039,38.127622 37.5023256,38.2594397 C40.211642,38.3426858 42.1536126,37.0314877 43.5703802,34.6609258 C44.0785454,33.8106543 44.4759533,32.8862552 44.7703022,31.9608689 C44.9449389,31.4118387 45.0435875,30.997706 45.0804147,30.7911574 L48.6037958,31.4193689 C48.5409169,31.7720309 48.4064534,32.3365166 48.1808716,33.0457101 C47.8081897,34.2173632 47.3040605,35.3900036 46.642482,36.496969 C44.6125516,39.8934864 41.5455301,41.9643071 37.3924112,41.8366989 C31.3388619,41.6506983 27.5338319,38.028708 26.2939873,31.4359991 Z" id="Combined-Shape"></path>
        </g>
    </g>
</svg>